<?xml version="1.0" encoding="UTF-8" standalone="no"?>
<!-- Created with Inkscape (http://www.inkscape.org/) -->

<svg
   xmlns:svg="http://www.w3.org/2000/svg"
   xmlns="http://www.w3.org/2000/svg"
   version="1.1"
   width="603.13837"
   height="457.63071"
   id="svg2">
  <defs
     id="defs6" />
  <path
     d="m 311.23229,17.716535 c -32.28536,3.9233 -66.67183,3.1008 -95.875,19.8437 -22.32391,9.8917 -44.15908,20.839 -63.59375,36 -21.06926,17.3246 -47.97684,26.497595 -67.593738,46.062495 -31.13178,29.3104 -62.05871,65.0707 -65.59375,109.5625 -3.93858,40.5899 5.43692,83.6859 32.71875,114.9688 14.78669,20.1693 36.10472,34.1852 56.781248,47.5 23.76214,6.2766 45.31743,18.4252 70.37499,16.2187 24.81374,4.4042 48.97077,4.8367 73.84375,4.125 26.7904,-1.5679 52.80034,-2.5927 79.84375,-2.6875 15.85455,-4.4761 52.76979,9.7353 53.84375,-11.6875 -8.80003,-26.6562 -34.08433,-37.4953 -57.46875,-45.125 -18.75708,-10.1921 -38.30534,-3.6337 -57.0625,-8.75 -0.3455,-0.2182 -0.72301,-0.3163 -1.15625,-0.3437 -0.01,-6e-4 -0.0214,5e-4 -0.0312,0 -2.38797,-0.7168 -4.76802,-1.6375 -7.125,-2.8125 -22.0316,-7.4327 -46.15707,-1.6883 -67.46875,-12.625 -23.67989,-7.2697 -49.57938,-15.0635 -63.78125,-36.6875 -12.21559,-18.7164 -17.84051,-44.8562 -4.625,-64.7188 16.48943,-20.0297 36.95392,-37.638 61.03125,-47.4687 14.4449,-18.1703 35.67248,-27.7689 54.21875,-41.0938 18.16637,-9.0903 36.73731,-18.5386 59.59375,-15.0625 25.13951,3.8247 49.83224,10.5182 73.4375,19.9063 23.00556,11.3534 46.87056,21.1751 69.03125,33.9687 15.40433,16.5941 40.36584,26.0799 46.625,49.5938 12.94899,18.4645 17.13232,41.999 23.78125,63.4375 9.66641,20.8813 3.52218,45.6728 17.5,64.7812 12.15321,21.2596 17.03603,45.3492 19,69.5938 -1.27661,23.5681 22.67954,18.8631 16.375,-2.5938 4.72403,-25.0816 7.25838,-50.6399 13.21875,-75.1562 1.89335,-23.4213 5.29857,-47.4448 4.09375,-72.0938 0.57198,-29.9411 -1.08523,-60.5455 -13.6875,-88.1875 -8.01881,-21.0922 -18.07143,-41.9482 -35.25,-57.1562 -28.71966,-30.805795 -65.7499,-51.827895 -101.84375,-72.562495 -19.43358,-9.2877 -38.31426,-19.4143 -59.5625,-24.375 -20.97862,-5.5505 -41.9697,-12.017 -63.59375,-14.375 z m -156.1875,58.5937 c -0.53867,0.3979 -1.08362,0.8016 -1.6875,1.125 0.56713,-0.3673 1.11745,-0.7638 1.6875,-1.125 z"
     id="path3846"
     style="color:#000000;fill:#000000;fill-opacity:1;fill-rule:evenodd;stroke:none;stroke-width:1px;marker:none;visibility:visible;display:inline;overflow:visible;enable-background:accumulate" />
</svg>
