<?xml version="1.0" encoding="UTF-8" standalone="no"?>
<svg id="svg2" xmlns:rdf="http://www.w3.org/1999/02/22-rdf-syntax-ns#" xmlns="http://www.w3.org/2000/svg" height="616pt" width="468pt" version="1.0" preserveAspectRatio="xMidYMid meet" xmlns:cc="http://creativecommons.org/ns#" xmlns:dc="http://purl.org/dc/elements/1.1/" viewBox="0 0 468 616">
 <metadata id="metadata4">Created by potrace 1.5, written by Peter Selinger 2001-2004
  <rdf:RDF>
   <cc:Work rdf:about="">
    <dc:format>image/svg+xml</dc:format>
    <dc:type rdf:resource="http://purl.org/dc/dcmitype/StillImage"/>
    <dc:title/>
   </cc:Work>
  </rdf:RDF>
 </metadata>
 <g id="g6" transform="translate(0 616) scale(.15705 -.15705)">
  <path id="path8" d="m1191 3621c-11-7-10-13 5-33 21-28 83-75 126-97 25-12 28-19 28-62 0-41-3-49-18-49-11 0-35 18-56 40-34 37-56 50-56 33 0-5 14-23 31-41 27-29 33-62 8-46-13 7-75-35-116-79-16-17-40-57-51-87-20-50-21-60-9-105 11-42 21-55 58-80 42-29 48-30 154-30 81 0 115-4 127-14 20-17 15-33-7-24-21 7-145-16-172-33-25-15-55-5-79 26-7 8-15 12-19 8-4-3-15 2-26 13-10 10-25 19-33 19-10 0-16 19-21 65-4 36-14 82-22 102-7 21-16 46-20 56-3 9-12 17-19 17-25 0-112 64-116 85-2 12-12 21-26 23-13 2-25 9-28 16s-30 30-61 52c-31 21-75 57-98 79-67 63-105 95-114 95-5 0-16 3-25 6-11 4-16 0-16-14 0-12 9-23 20-27s18-10 15-15c-6-10 113-127 147-144 13-6 27-21 33-34 5-12 16-22 23-22 8 0 16-9 19-20s10-20 17-20c6 0 32-20 58-44 25-24 52-46 58-48 7-2 13-17 14-33 1-17 7-40 14-52s12-30 12-40 7-28 15-39c8-12 11-24 8-28-13-13 59-149 85-161 14-6 22-19 22-33 0-19 4-22 21-17 18 6 19 4 11-12-9-17-24-79-27-115-1-10-8-24-15-33-9-11-9-19-2-28 7-8 7-18 2-27-5-8-7-24-4-34 6-18 4-18-31 3-21 12-45 19-53 16s-20-1-27 5-29 7-56 2c-42-7-45-10-60-56-11-31-34-65-67-99l-51-51-38 17c-21 9-56 19-78 22-22 4-49 10-60 14-44 18-93 31-112 31-12 0-34 6-50 14-15 8-66 27-113 41-47 15-89 29-95 31s-17-1-25-6c-13-9-13-11 0-20 8-6 35-15 58-22 24-6 46-17 49-24 3-8 16-14 28-14 13 0 27-4 30-10s16-10 29-10c12 0 26-4 32-10 5-5 18-11 29-12 11-2 40-14 63-26 24-12 48-20 53-17 5 4 9 1 9-4 0-6 14-11 30-11s30-3 30-8c0-7 69-32 92-32 7 0 24-9 38-20 43-34 71-26 113 30 20 27 47 68 58 90 24 45 25 46 46 25 8-9 28-19 44-22 33-6 35-14 14-47-23-35-34-124-36-286-2-213-6-237-40-257-16-10-29-23-29-30s-9-22-20-33-20-30-20-43-6-29-12-35c-9-9-10-15-2-20 26-16 33-130 14-217-16-77-28-285-18-307 5-10 4-19-2-23s-8-16-5-28c5-17 4-19-4-7-9 12-15 10-44-18-18-17-38-32-45-32s-12-5-12-12c0-11-71-83-117-118-24-18-39-85-22-96 15-9 59 40 59 65 0 23 25 45 40 36 6-4 35 19 64 49 29 31 58 56 64 56s13 8 15 18c3 9 5-5 6-33 1-45 19-161 37-240 4-17 13-37 20-46 8-9 11-19 7-22-3-4 0-26 7-49 49-163 216-372 324-408 76-25 266 5 266 42 0 18 47-1 78-32 22-21 40-30 64-30 19 0 39-5 44-10 14-14 100 14 130 41 11 10 24 19 28 19 28 0 146 120 146 149 0 4 16 21 36 37 90 74 167 280 197 532 2 15 54-34 112-106 22-28 44-49 50-48 5 1 20-9 32-23 18-18 26-22 35-13 8 8 8 15-1 26-7 8-10 24-6 35 4 13 0 21-12 26-18 7-116 117-164 185-29 41-35 71-49 235-18 205-18 206-53 283-8 16-7 32 2 57 7 19 9 40 6 45-4 6-2 17 5 25 9 10 8 19-4 38-9 13-13 26-10 30 4 4-10 23-30 44-25 26-36 47-37 68 0 30-2 42-14 125-4 25-8 72-9 105-4 69-21 138-43 172-10 14-13 34-10 52 5 23 2 30-13 34-33 9-22 24 21 30 23 3 51 15 64 27l23 21 21-44c11-24 21-50 21-59s7-19 16-22 14-12 11-19c-14-37 57-60 99-32 13 8 31 15 41 15s31 7 47 15c15 8 36 15 46 15s23 7 30 15 21 15 32 15c10 0 28 9 40 20s33 20 47 20 35 7 45 15c11 8 30 15 42 15s27 7 34 15 23 15 36 15c12 0 26 4 29 10s14 10 24 10c19 0 61 35 61 51 0 18-29 21-60 5-17-8-37-13-44-10s-19-2-26-11c-7-8-22-15-34-15-11 0-36-9-54-20s-45-20-61-20-36-9-47-21c-14-16-26-19-50-15-22 5-35 2-44-9-7-9-19-14-26-11-8 3-20-1-28-9s-23-15-33-15c-11 0-24-5-30-11-13-13-36-3-28 12 3 5-3 19-14 31-12 12-21 27-21 34 0 6-7 15-16 18-8 3-13 10-10 15s-1 14-9 21-15 23-15 35c0 13-6 26-12 29-10 5-10 7 0 12 29 14 7 23-47 20s-162-36-185-58c-21-17-34-6-41 35-4 23-7 46-6 51 1 4-3 14-9 22-7 7-9 22-5 33 3 10 1 23-6 26-8 6-8 9 1 15s6 16-11 39l-22 31 56 51c32 29 55 54 53 57-3 2 6 14 20 27 13 12 24 27 24 34 0 6 4 19 9 29 5 9 14 42 21 72s15 59 18 64 7 27 9 50 9 43 16 45c6 2 36 28 66 57 30 30 56 54 58 54s17 16 34 35 37 35 44 35 43 31 81 70c37 39 73 70 79 70s12 14 12 30-2 30-4 30c-13 0-151-103-198-148-11-10-31-25-45-32s-28-19-33-26c-4-7-14-11-22-7-20 7-62-21-71-49-8-26-45-63-96-98-45-30-45-26-58-242 0-5-11-8-24-8-20 0-59-24-114-71-13-11-59 1-87 22-6 4-32 10-60 14-27 4-56 11-63 14-17 9 130 34 151 25 9-3 39-1 66 6 89 21 143 107 121 191-22 80-109 179-156 179-37 0-45 20-22 52 28 41 12 50-20 12-29-34-68-49-75-30-13 37 39 103 107 138 44 22 86 56 86 70 0 4-18 8-40 8s-40-4-40-10-7-10-15-10-15-4-15-10-5-10-10-10c-25 0-79-46-82-70-2-20-11-27-40-34-26-7-38-15-38-27 0-13-11-20-36-25-32-6-40-3-75 32-21 21-39 42-39 46 0 21-48 71-85 89-22 11-54 28-70 39-19 12-35 16-44 11zm278-261c4 0 12 5 18 11 8 8 17 8 33-1 12-6 42-14 67-17 72-7 92-26 88-76-5-48 16-118 36-126 8-4 15-17 17-31 2-20 0-22-8-10-9 13-11 13-20 0-14-22-6-35 23-35 24-1 67-40 67-62 0-4-42-8-92-8h-93v34c0 42-17 50-35 16-13-24-30-34-30-16 0 28 49 75 93 89 26 8 47 21 47 28 0 18-18 18-54-1-15-8-37-15-48-15-12 0-24-12-33-33-8-19-21-39-29-47-9-7-16-21-16-31 0-11-3-19-7-19-9 0-47 81-44 93 3 17-29 37-59 37-17 0-42 7-56 16-18 12-28 14-36 6-17-17-1-30 45-37 50-9 97-55 97-94v-26l-20 25c-11 14-20 28-20 33 0 4-9 7-19 7-15 0-21-8-23-32-3-31-5-33-43-33-22 0-51 2-65 5l-25 7 24 13c14 7 36 24 49 37 22 23 23 26 9 40-13 14-19 14-32 3-25-20-27-7-5 38 11 22 20 48 20 55 0 8 6 17 14 20 9 4 14 19 13 41-1 36-11 47-20 24-3-7-6-1-6 15-1 28 16 36 36 16 8-8 13-5 18 10 3 12 14 21 23 21 22 0 52-34 52-58 0-28 29-62 53-62 11 0 38-16 58-36 36-35 59-38 59-9 0 22-28 44-50 38-26-7-26 9 0 25 11 7 20 22 20 35s5 28 12 35c15 15 6 24-15 16-9-3-17-18-19-32-2-22-9-28-40-33s-38-2-48 17c-7 12-9 27-6 33 5 7 1 8-9 5-13-5-15-2-9 20 5 22 3 28-15 33-21 5-26 14-15 26 4 4 20-5 36-18 16-14 33-25 37-25zm125 29c-7-12-44-12-44 0 0 5 6 11 13 14 17 6 38-3 31-14zm606-29c0-6-5-10-11-10-5 0-7 4-4 10 8 13 15 13 15 0zm-1343-70c14-11 21-20 15-20-12 0-60 39-49 40 5 0 20-9 34-20zm1253-9c0-11-29-35-35-29-10 9 7 38 21 38 8 0 14-4 14-9zm-74-68c-10-10-19 5-10 18 6 11 8 11 12 0 2-7 1-15-2-18zm-30-48c-4-14-1-25 6-27 6-2 8-10 4-17-19-31-38 22-27 77 1 2 6 0 12-4 6-3 8-17 5-29zm-1018 13c-2-6-10-14-16-16-7-2-10 2-6 12 7 18 28 22 22 4zm24-50c-9-9-12-7-12 12s3 21 12 12 9-15 0-24zm8-48c0-6-7-10-15-10s-15 4-15 10 7 10 15 10 15-4 15-10zm218-27c-8-10-18-25-21-33-4-13-6-12-12 2-8 21 26 71 39 57 6-5 3-15-6-26zm732-30c0-64-15-52-17 15-2 40 0 52 7 42 5-8 10-34 10-57zm-940 1c0-2-5-4-10-4s-10 5-10 11c0 5 5 7 10 4s10-8 10-11zm541-37c-8-8-11-7-11 4 0 20 13 34 18 19 3-7-1-17-7-23zm-511-53c0-8-5-12-10-9-13 8-13 25 0 25 5 0 10-7 10-16zm66-29c9-14 14-29 10-32-7-7-56 36-56 49 0 18 31 7 46-17zm782 12c9-10 7-19-4-35-19-28-34-28-27-1 5 18 3 20-16 14-25-8-28 10-3 24 23 14 38 13 50-2zm-462-18c-4 7 1 11 13 11s21-7 21-15c0-19 16-19 24 0 3 8 15 15 26 15 12 0 18-5 15-10-10-17 26-24 58-12 25 10 34 9 47-3 9-8 24-15 33-15s17-7 17-15-7-15-16-15c-11 0-14-6-9-20 3-11 2-20-3-20-6 0-12 5-14 12-6 17-58 1-58-18 0-11 9-14 33-12 30 3 32 1 29-24-1-16 1-28 6-28 12 0 34 43 32 61-6 39 0 47 33 45s37-10 23-52c-4-15-1-28 10-39 15-14 15-18 3-26-8-4-14-12-14-16 0-18-45-64-55-58-6 4-17 1-25-5-17-14-20-50-5-50 6 0 10 7 10 15 0 20 16 19 24-1 4-11-1-22-13-30-12-9-17-21-14-34 4-14 0-20-10-20-22 0-31 18-17 35 8 10 8 15 0 20-7 4-10 19-7 33s3 32 0 39c-6 16-23 17-23 1 0-27-34-48-77-48h-43v-90c0-53-4-90-10-90s-10-16-10-35 4-35 10-35 10 9 10 19c0 11 4 23 10 26s10 39 10 79c0 48 5 79 15 92 13 16 16 17 25 4 7-11 5-18-5-26-22-16-18-26 8-22 18 2 21 8 19 31-3 20 1 27 13 27 13 0 16-6 13-25-3-14-1-28 4-31s3-12-4-21c-7-8-12-38-13-66 0-42-3-52-18-55-16-3-17-1-8 16 6 12 11 39 11 61 0 33-4 41-18 41s-18-10-20-52c-1-29-7-55-12-56-12-4-14-42-2-42 4 0 14 4 21 9 25 16 51-5 45-37-5-28 10-62 22-49 4 3 7 24 8 44 1 31 5 38 21 38 11 0 26-12 35-28 13-23 13-29 1-36-8-5-21-7-29-4-11 5-13 0-8-24 6-26 1-36-32-72-21-22-45-41-54-41s-19-7-22-15c-4-12-10-14-25-5-14 7-22 7-27-1s-10-6-16 5c-5 9-19 16-31 16-23 1-54 38-84 102-10 21-23 36-30 34-18-7-22 17-6 36 9 9 18 39 21 65l6 48 7-45c4-25 8-64 8-88 1-30 5-42 14-39 8 2 11 20 9 51-3 40-1 46 15 44 57-5 65 0 61 39-2 22 2 38 10 41 17 5 17 222 0 222-10 0-13-22-12-77 0-46-4-81-10-85-8-6-6-11 4-19 11-8 12-12 3-16-8-2-13-22-13-44 0-21-5-39-11-39-13 0-9 172 4 181 14 10 0 39-18 39-8 0-15-9-15-19s-7-22-16-25c-13-5-14-1-9 27 9 37 20 47 46 40 14-4 19 0 19 16 0 28-35 28-50 1-6-11-20-20-30-20-17 0-20-7-20-44 0-25-5-48-11-52-8-5-10 11-7 55 3 46 1 61-9 61-18 0-16 10 4 26 10 7 15 15 12 18s-16-3-29-14c-27-24-40-25-40-5 0 8-5 15-10 15s-10-7-10-15 5-15 10-15c17 0 11-27-7-35-17-6-17-7 0-16 9-6 17-17 17-24 0-8 5-15 11-15 7 0 9 11 6 28-6 28 6 62 18 50 3-3 5-32 3-63l-3-58-55 54c-46 45-56 60-57 92-1 20 3 37 8 37s9-18 9-40 5-40 10-40c14 0 13 77-1 82-6 2 5 21 24 42 28 30 42 38 70 38 41 0 58 23 24 34-12 4-23 2-25-5-2-6-13-11-25-11-13-1-34-16-52-40-17-21-39-43-51-48-14-7-21-19-21-41 0-18-4-36-10-42-8-8-11 5-11 40 0 38 4 51 15 51 9 0 12 6 8 19-3 10 4 37 18 62 18 34 28 43 45 42 13-2 22 3 22 11 0 17 27 29 35 16 10-15 25-12 25 6 0 11 6 13 19 9 11-3 22-2 25 3s16 7 30 5c13-3 27 0 30 6 5 8 13 8 28 0s19-8 14 0zm-376-9c0-6-5-10-10-10s-10 4-10 10 5 10 10 10 10-4 10-10zm750-10c0-6-5-10-11-10-5 0-7 4-4 10 8 13 15 13 15 0zm-720-15c0-8-5-15-10-15s-10 7-10 15 5 15 10 15 10-7 10-15zm760-29c0-9-30-14-35-6-4 6 3 10 14 10 12 0 21-2 21-4zm-50-95c0-38-17-13-25 34-6 39-6 39 9 15 8-14 15-36 16-49zm-10-63c-1-13-14-39-30-58-24-27-32-32-42-21-11 10-9 16 7 29 11 9 26 29 34 45 17 33 31 35 31 5zm34-43c-8-19-14-19-14 0 0 8 4 15 10 15 5 0 7-7 4-15zm-687-107c3-29 1-48-4-42-4 6-15 13-24 16-15 6-16 45-3 87 9 28 27-7 31-61zm702 35c15-52 14-72-5-90-13-14-17-14-25-2-5 8-8 30-7 49 0 23 2 27 5 13 6-31 23-29 23 2 0 14-4 25-10 25s-10 9-10 20c0 33 18 22 29-17zm-59 12c-7-9-15-13-17-11-7 7 7 26 19 26 6 0 6-6-2-15zm-578-55c-7-12-8-20-2-20 5 0 10 4 10 10 0 14 32 12 53-4 16-12 16-17 5-35-7-12-18-21-25-21s-13-9-13-20 5-20 10-20 10 5 10 12c0 12 72 80 78 73 2-2-1-12-7-23-6-12-11-38-11-60 0-61-21-70-64-28-40 38-43 52-21 82 24 31 17 39-10 10-32-35-42-33-38 7 8 67 13 81 26 68 9-9 9-16-1-31zm553 9c8-25-1-37-17-21s-28 15-28-2c0-8-6-16-12-19-10-4-10-7 0-18 6-7 12-21 12-31s4-18 10-18c14 0 13 33-2 48-9 9-8 12 4 12 26 0 40-24 29-52-10-27-41-57-41-39 0 6-4 11-10 11s-10-7-10-16c0-13-3-14-14-5-7 6-21 9-30 5-19-7-22 16-4 34 8 8 8 15-1 26-14 16-6 40 10 30 5-3 26 13 46 35 40 47 49 50 58 20zm-365 2c0-5-7-11-14-14-10-4-13-1-9 9 6 15 23 19 23 5zm-441-32c18-25 34-24 26 1s7 26 29 1c13-15 14-20 4-24s-10-8 2-17 7-10-25-6c-22 3-50 6-62 6-13 0-23 4-23 10s7 10 15 10 15 5 15 11c0 7-10 9-25 7-24-5-34 10-18 25 11 11 47-3 62-24zm1174 16c6-13-35-55-54-55-4 0-15-3-23-6-12-5-15-2-10 10 3 9 16 16 29 16 21 0 42 26 30 38-8 9-85-32-85-45 0-11-30-33-45-33-4 0-4 8-1 17 4 9 1 20-6 25-8 5-1 6 17 2 27-7 29-6 16 9-12 15-11 17 7 17 12 0 24 4 27 10 10 16 92 12 98-5zm-733-31c0-8-4-12-10-9-13 8-13 25 0 25 6 0 10-7 10-16zm-254-40c20-22 34-47 34-62 0-14 5-41 12-59 10-28 10-36-1-42-8-5-10-14-6-21 5-9 4-11-3-6-8 5-12 0-12-12 0-11 7-22 15-26 17-6 22-101 5-111-5-3-10-25-10-48s-4-37-9-31c-16 18-31 129-31 240 0 80-4 114-12 118-10 5-10 7 0 12 13 6 17 34 4 34-5 0-17-7-28-15-27-21-35-18-28 9 3 14 1 27-6 31-9 6-9 10 1 16 24 15 40 10 75-27zm759-9c0-13-8-21-22-23-17-3-23 2-23 16 0 10 3 22 7 26 13 13 38 1 38-19zm277-5c7-17 16-30 20-30 5 0 8-7 8-16s-5-14-12-12c-14 5-46 57-47 76-2 23 17 12 31-18zm-1322-2c-1-7-10-24-21-37-15-19-22-22-32-12-9 9-7 13 10 17 12 3 23 14 26 25 6 21 17 26 17 7zm539-20c-1-31-1-31-8-8-5 14-6 28-4 33 9 15 13 6 12-25zm461-65c0-23 5-53 11-67 9-19 9-32 0-54-7-17-13-62-14-101s-4-71-8-71c-13 0-29 26-29 46 0 13-4 25-9 28-18 11-22 86-6 117 13 24 14 34 4 45-16 20-29 17-29-5 0-11-4-23-10-26-6-4-10 6-10 24 0 16 4 33 10 36s10 17 10 31 7 41 15 61l15 36 25-29c18-21 25-41 25-71zm-1250 27c0-6-7-10-15-10s-15 4-15 10 7 10 15 10 15-4 15-10zm442-2c-7-7-12-24-12-39s-5-31-10-34c-13-8-13-94 1-134 6-17 20-36 30-42 26-13 16-28-16-21-15 2-25 0-25-7s-5-9-10-6c-24 15-1 246 28 278 8 9 18 17 21 17s0-5-7-12zm64-35c-1-38-5-48-20-51-17-4-18 0-12 39 7 46 13 59 26 59 4 0 7-21 6-47zm-318 1c-4-23-26-30-34-10s15 51 29 37c5-5 7-17 5-27zm1637 26c-8-13-15-13-15 0 0 6 5 10 11 10 5 0 7-4 4-10zm-195-6c0-8-32-33-42-34-5 0-8 4-8 10s7 10 15 10 15 4 15 10 4 10 10 10 10-3 10-6zm-1565-15c12-19-5-23-22-6-16 16-16 17-1 17 9 0 20-5 23-11zm575-32c0-5-7-4-15 3s-15 20-15 29c1 13 3 13 15-3 8-11 15-24 15-29zm747-123c3-34 3-70-1-80-6-16-8-16-20 6-8 17-9 29-3 38 13 16 11 106-3 110-5 2-10 14-10 27s-4 27-10 30-10 14-9 23c2 38 50-96 56-154zm387 151c-4-8-10-12-15-9-14 8-10 24 6 24 9 0 12-6 9-15zm-1664-11c0-2-5-4-10-4s-10 5-10 11c0 5 5 7 10 4s10-8 10-11zm1608-4c-7-11-16-20-20-20-11 0-10 9 5 25 18 21 29 18 15-5zm-428 0c0-6-5-10-11-10-5 0-7 4-4 10 8 13 15 13 15 0zm345-29c-8-13-35-15-35-2 0 5 8 11 18 13 21 5 26 2 17-11zm-955-33c0-6-7-5-15 2s-15 17-15 22c0 6 7 5 15-2s15-17 15-22zm636 6c-4-9-9-15-11-12-3 3-3 13 1 22s9 15 11 12c3-3 3-13-1-22zm-652-46c6-4 8-9 5-12-10-10-61 52-54 65 6 8 13 3 23-17 8-16 20-32 26-36zm-209 40c10-32 15-108 8-108-12 0-33 60-33 93 0 27 17 37 25 15zm55-48c0-17-5-30-10-30s-10 13-10 30 5 30 10 30 10-13 10-30zm186 3c-3-4-6 2-5 13 0 11 3 14 6 6 3-7 2-16-1-19zm402 7c-17-26-32-26-18 0 6 11 15 20 20 20 6 0 5-9-2-20zm52 9c0-5-4-7-10-4-13 8-13 15 0 15 6 0 10-5 10-11zm196-25c-3-36-20-63-33-51-4 4-1 13 5 19 7 7 12 25 12 40s4 28 10 28c5 0 8-16 6-36zm-196-52c0-36-25-72-50-72-15 0-12-16 5-30s20-46 4-55c-21-14-39 29-37 93 0 34 5 65 9 68 5 3 9-4 9-15 0-12 4-21 10-21s10 9 10 20c0 25 21 60 32 54 4-3 8-22 8-42zm-444-58c1-22 5-47 9-56 5-12 2-20-10-24-26-10-39 10-23 35 11 20 10 24-9 41-13 10-23 29-23 44 0 14-5 26-10 26s-10 5-10 10c0 6 17 0 38-13 32-21 37-30 38-63zm-200 9c-11-11-19 6-11 24 8 17 8 17 12 0 3-10 2-21-1-24zm542-21c3-47 1-53-22-63-22-10-28-8-50 17-34 39-32 51 9 71 19 9 35 21 35 26s6 7 13 5c7-3 13-26 15-56zm242-7c0-37-4-65-10-65-11 0-14 113-3 123 12 13 13 7 13-58zm-525 35c3-6 17-10 30-10 15 0 29-9 36-22 10-19 8-25-17-45-16-13-32-23-36-23-14 0-8 23 10 43 16 19 16 19-8 12-14-4-27-12-28-16-8-21-22-6-22 24 0 43 19 63 35 37zm610-53c14-55 10-90-10-97-18-7-21-4-19 19 1 14 2 43 3 64 1 41 17 50 26 14zm-885-29c-1-42-26-88-48-88-6 0-12-6-15-12-2-7-8-10-12-6s-3 27 3 51c6 23 9 53 5 65-4 16-1 22 12 22 12 0 16-8 15-32-3-48-1-58 10-58 5 0 10 23 10 50 0 28 5 50 10 50s10-19 10-42zm40-3c0-19-5-35-10-35s-10 16-10 35 5 35 10 35 10-16 10-35zm380-9c0-43-9-66-25-66-8 0-13 15-13 42-1 48 3 58 24 58 9 0 14-11 14-34zm256 7c-3-4-6 2-5 13 0 11 3 14 6 6 3-7 2-16-1-19zm66-40c-2-12-8-20-13-17-11 6-12 58-2 68s20-23 15-51zm187-57c-5-6-9 15-8 55l1 64 9-55c4-32 4-59-2-64zm-1012 72c-3-7-5-2-5 12s2 19 5 13c2-7 2-19 0-25zm560 7c3-9-3-25-13-36-13-15-15-22-6-31s17-7 33 11c20 21 22 21 35 4 7-10 14-14 14-9 0 10 40-23 40-34s-75-8-82 3c-5 8-13 5-24-11-9-13-23-22-31-20-17 3-27 54-12 63 5 4 9 22 9 41 0 36 25 49 37 19zm-117-20c0-14-4-25-9-25-12 0-23 29-15 41 10 18 24 9 24-16zm-209-58c-8-8-11-2-11 19 0 40 14 54 18 19 2-15-1-32-7-38zm529 35c0-15-5-33-12-40-8-8-8-15 2-27 9-11 10-19 3-26-18-18-26 9-18 67 7 56 25 75 25 26zm-607-84c6-4 8-10 4-14-15-15-36 31-32 71 6 57 8 57 12 0 3-27 9-53 16-57zm707 65c0-7-4-13-10-13s-10 12-10 28c0 21 2 24 10 12 5-8 10-21 10-27zm-680 17c0-6-5-10-10-10s-10 4-10 10 5 10 10 10 10-4 10-10zm140-3c0-7-9-20-20-30-17-14-20-15-20-1 0 16 20 43 33 44 4 0 7-6 7-13zm95-7c9-10 22-18 29-17 6 1 12-10 14-25 3-25 1-26-35-21-21 3-50 6-65 7-35 1-35 12-1 48 32 33 35 34 58 8zm279-15c-8-19-14-19-14 0 0 8 4 15 10 15 5 0 7-7 4-15zm126-104c0-72-3-90-16-95-22-8-31-7-17 2 8 5 9 19 3 46-5 23-5 49 1 63 5 13 9 35 9 49 0 13 4 24 10 24s10-36 10-89zm158 66c5-23-10-21-26 4-12 18-11 20 5 17 10-2 19-11 21-21zm-731-39c-3-7-5-2-5 12s2 19 5 13c2-7 2-19 0-25zm-148 0c-1-13-4-34-8-48-6-21-8-22-14-7-8 21 2 77 14 77 5 0 9-10 8-22zm301 7c61-11 63-12 46-37-9-12-16-28-16-35 0-21 25-15 35 10 6 12 14 22 20 22s11-10 13-22c2-13 10-23 18-23 18 0 18 25-1 44-25 25-17 36 25 36 33 0 40-3 40-20 0-11 5-20 11-20 7 0 10 12 7 30-4 26-1 30 19 30 23 0 31-18 14-36-17-17-17-74-1-74 6 0 10 13 10 29 0 17 4 33 10 36s10 15 10 26c0 10 5 19 11 19 8 0 9-11 5-32-4-18-9-51-13-73-9-65-10-65-167-65-155 0-170 5-179 55-3 17-9 42-13 57-10 43 1 61 34 54 15-3 43-8 62-11zm515-15c17-32 19-50 7-50-7 0-32 57-32 73 0 15 10 6 25-23zm-938-23c-3-6-5 1-5 18s2 22 5 12c2-9 2-23 0-30zm38 33c-8-13-15-13-15 0 0 6 5 10 11 10 5 0 7-4 4-10zm188-37c5-43-7-59-18-24-5 17 3 77 10 69 1-2 5-22 8-45zm817 32c0-8-4-15-10-15s-10 7-10 15 4 15 10 15 10-7 10-15zm-280-76c0-46-2-49-26-49-26 0-26 1-10 24 10 17 14 35 10 56-6 25-4 29 10 24 12-4 16-19 16-55zm-474-1c-15-21-16-22-16-2 0 11 6 26 12 32 19 19 22-4 4-30zm-197-10c1-5-6-8-14-8s-15-6-15-14-7-16-15-20c-21-8-19 7 5 37 11 14 20 31 21 39 0 12 17-18 18-34zm908-14c-10-11-37 10-37 29 0 20 0 20 21-2 12-12 19-24 16-27zm-1041 11c1-14-3-25-8-25-6 0-8-6-5-13s-1-21-9-32c-14-18-14-18-14 1 0 28 20 94 28 94 4 0 8-11 8-25zm1124 5c0-6-5-10-11-10-5 0-7 4-4 10 8 13 15 13 15 0zm-770-35c-3-5-11-9-17-7-7 2-13-2-13-8s-5-8-10-5c-16 10 9 37 29 33 9-2 14-8 11-13zm-227-205c-7-36-13-77-13-92 0-18-5-28-15-28-8 0-15 9-15 20 0 12-15 44-33 73s-36 62-39 75c-10 38 33 102 69 102 11 0 24 13 33 33l15 32 6-75c3-45 0-101-8-140zm113 183c-3-4-6 2-5 13 0 11 3 14 6 6 3-7 2-16-1-19zm779-11c6-13 16-20 23-17 8 3 24-5 37-17 22-21 22-24 9-59-8-20-14-40-12-45 1-5-6-23-15-41s-17-44-17-58c0-17-5-25-12-23-16 6-26 41-27 98-1 25-5 59-10 77-6 19-5 35 1 41s6 17-1 30c-6 11-11 26-11 32 0 19 24 6 35-18zm147 6c-6-6-15-8-19-4s-1 11 7 16c19 12 27 3 12-12zm-1223-15c0-25-1-25-8-8-5 11-7 23-4 28 8 14 13 7 12-20zm275-50c-5-116-3-110-20-88-10 13-12 29-8 50 4 16 8 39 10 50 3 27 3 27 12 21 4-2 7-17 6-33zm90 8c-4-16-1-32 5-35 6-4 11-24 11-45 0-20 5-42 12-49 17-17-15-16-42 1-17 10-22 9-30-3-7-11-9-6-9 20 1 19 3 27 6 18 2-10 9-18 14-18 11 0 29 43 29 68-1 15-2 15-15-2-19-25-24-19-18 22 3 18 11 32 19 32s14 4 14 10 2 10 5 10c2 0 2-13-1-29zm626 4c-11-13-15-13-21-3-5 8-2 15 9 19 23 9 27 3 12-16zm-563-13c16-10 54-125 45-134-4-4-17-5-30-2-24 7-30 42-11 61 13 13 4 47-10 39-5-3-12 1-15 10-12 32-4 42 21 26zm484-1c-10-7-11-18-3-57 11-51 5-64-30-64-20 0-24 15-8 25 6 3 10 25 10 49 0 46 5 56 29 56 13 0 13-2 2-9zm-901-11c0-6-5-10-10-10s-10 4-10 10 5 10 10 10 10-4 10-10zm740-5c0-8-6-12-15-9-11 5-13-1-8-32 4-27 3-35-6-30-6 4-18 1-26-8-19-19-19-30 0-23 15 6 31-8 18-16-5-3-38-8-75-11-65-7-66-7-61 14 6 22-14 70-29 70-11 0-10-38 2-45 18-11 11-35-10-35-24 0-47 47-30 64 13 13 13 56 0 56-6 0-10-10-10-22 0-19-2-20-10-8-23 36-13 39 118 43 70 1 130 4 135 5 4 1 7-5 7-13zm88-12c2-14-4-27-17-35-23-14-27-38-10-55 8-8 0-12-25-15-20-2-36-3-36-1 0 11 28 60 40 69 12 10 12 15 1 27-16 21-8 35 21 33 16-1 24-8 26-23zm168-28c-3-8-10-15-16-15-14 0-12 37 3 43 15 5 21-8 13-28zm200-22c-3-4-6 2-5 13 0 11 3 14 6 6 3-7 2-16-1-19zm-166-159c5-55 10-112 13-129 2-17 10-77 16-135 27-229 62-392 97-447 12-19 12-26-1-50-8-15-22-46-32-68-28-65-134-205-177-237-23-16-49-35-59-44-24-20-40-8-32 25 12 48 32 161 60 336 9 55 18 143 20 195s6 115 9 140 8 106 11 180c6 143 20 224 43 252 10 12 12 29 7 60-5 33-4 40 5 32 6-7 15-56 20-110zm-957 74c2-7-3-18-12-25-11-8-12-12-3-13 6 0 12-5 12-12 0-6-8-4-19 6-16 15-18 21-8 37 14 22 24 24 30 7zm175-6c2-7-3-12-12-12s-16 7-16 16c0 17 22 14 28-4zm911-15c-1-17-2-18-6-4-5 21-23 23-23 2 0-8-4-15-10-15-15 0-12 16 6 34 19 20 34 12 33-17zm67-174c3-51 3-93-1-93-12 0-95 85-95 98 0 6 9 29 20 49 11 21 20 45 20 53 0 9 4 20 10 26 5 5 11 21 14 34 2 14 5 27 7 30 4 11 20-110 25-197zm-1221 127c14 0 25-21 25-51 0-10 4-19 9-19s14-14 21-31c13-29 11-33-18-60-18-17-32-34-32-40 0-5-5-9-11-9-7 0-10 29-8 83 1 45-1 100-3 122-3 22-4 32-1 23 2-10 10-18 18-18zm374 26l23-13-22-6c-12-3-19-10-16-16 4-5 2-12-4-16-12-7-14-45-2-45 4 0 13 14 20 30 16 36 32 30 32-11 0-26-3-29-34-29-42 0-48 8-50 71-1 54 8 60 53 35zm531 4c0-5-9-15-20-22-21-13-27-38-10-38 6 0 10 4 10 10s4 10 10 10 10-8 10-19c0-13-13-23-47-34-26-9-49-14-51-12s1 12 7 23c6 12 11 30 11 41s10 27 22 35c25 18 58 21 58 6zm-424-16c12-3 27-18 34-32 7-15 19-39 27-54l14-28h-43c-54 0-64 7-71 50-3 19-8 43-12 53-8 18 10 22 51 11zm304-6c0-7-3-24-7-36-4-18-8-20-14-10-7 11-11 10-19-2-7-11-5-19 7-27 15-12 14-13-8-14-13-1-31-2-39-3s-21-5-28-10c-24-15-23 0 4 57 25 55 27 57 65 57 25 0 39-5 39-12zm-680-14c0-9 8-27 19-40 21-27 18-76-5-67-16 6-18 19-5 27 5 4 4 17-2 31-12 25-27 34-27 15 0-6-5-10-10-10-14 0-12 28 3 45 16 19 27 19 27-1zm550 4c0-5-4-8-10-8s-10-7-10-15c0-21-28-75-39-75s-31 46-31 70c0 11-4 20-10 20s-10 4-10 8 25 8 55 8c30-1 55-4 55-8zm470-9c0-5-4-9-10-9s-10 7-10 16c0 8 4 12 10 9s10-10 10-16zm-903-41c6-18 16-58 23-88 6-30 17-73 23-95s12-132 13-245 7-237 14-275c18-106 28-156 39-200 6-22 14-58 19-80s14-50 21-63c10-19 9-23-5-29-64-24-202 108-293 281-23 42-25 54-15 64 23 21 55 150 84 337 6 38 15 95 20 125s12 93 16 140c3 47 8 96 10 110 1 14 3 31 3 38 2 23 17 12 28-20zm881 4c-5-27-28-26-28 2 0 19 4 24 15 19 9-3 15-12 13-21zm-801-104c-3-7-5-2-5 12s2 19 5 13c2-7 2-19 0-25zm-340-30c-3-7-5-2-5 12s2 19 5 13c2-7 2-19 0-25zm95-30c-7-7-12-8-12-2 0 14 12 26 18 19 3-3 0-11-6-17zm62-25c-11-103-26-212-39-293-8-47-17-101-20-120-11-69-17-90-26-90-5 0-9 13-9 28s-4 32-9 38c-11 11-18 77-26 229l-6 111 60 64c33 36 61 68 61 73 0 4 4 7 10 7s7-20 4-47zm1039-53c4 0 22-15 38-32 30-33 30-34 25-118-9-133-37-263-49-230-13 33-35 140-47 225-6 50-17 125-24 168-7 42-10 80-7 83s17-18 30-45c14-28 29-51 34-51zm-1140 36c-19-27-33-33-33-15 0 11 42 50 48 44 2-2-4-15-15-29zm1167 13c0-5-4-9-10-9s-10 7-10 16c0 8 4 12 10 9s10-10 10-16zm-724-36c-3-4-6 2-5 13 0 11 3 14 6 6 3-7 2-16-1-19zm430 5c-3-13-9-40-12-60-5-28-12-38-25-38-30 0-31 17-2 69 29 53 50 68 39 29zm-543-63c4-8 2-17-2-20-5-2-11 4-14 15-6 23 8 27 16 5zm87-123c0-7 9-20 20-29 11-10 22-33 25-53 6-38 22-122 35-185 5-22 14-67 21-100s16-64 21-70c11-13 10-105-2-105-10 0-60 102-60 123 0 7-4 17-8 22-4 6-14 28-21 50s-16 49-21 60c-4 11-12 38-18 60-26 100-35 132-43 153-5 13-9 34-9 47s-4 27-10 30c-5 3-10 25-10 47v42l40-40c22-21 40-45 40-52zm430 37c0-5-4-9-8-9s-14-28-21-62c-8-35-17-68-21-73s-18-46-30-90-29-93-38-110c-8-16-15-32-15-35 1-20-88-210-98-210-19 0-19 64 0 123 36 108 94 360 96 417 0 8 8 16 18 18 11 2 16 9 13 18-3 8-2 14 3 14 4 0 13 11 19 25l11 25 36-21c19-12 35-25 35-30zm450 30c0-6-4-7-10-4s-10 11-10 16c0 6 4 7 10 4s10-11 10-16zm-962-189c6-19 17-62 26-95s20-69 25-80 14-36 21-55c19-56 25-71 61-150 18-41 42-87 51-102 14-21 16-28 6-35-59-37-105-44-114-15-3 9-9 26-14 37-11 28-40 150-50 210-5 28-13 79-19 115-14 84-24 289-11 240 5-19 13-51 18-70zm172 90c0-5 15-10 33-11 17 0 26-3 20-6-20-8-15-23 7-23 11 0 20 7 20 15s7 15 15 15 24 5 35 12c10 7 22 10 25 7 4-5-9-73-45-239-4-19-16-66-26-104l-18-70-12 50c-17 68-31 137-44 219-7 38-15 87-20 108-4 21-4 37 1 37s9-5 9-10zm360-66c0-25-4-64-9-87s-15-89-21-147-16-116-21-128c-5-13-12-41-14-63-7-53-33-151-43-161-11-11-116 27-133 48-10 12-8 20 12 42 14 15 30 38 36 52 15 36 73 162 84 182 5 10 9 30 9 46 0 15 7 37 15 48 8 10 15 29 15 41s3 24 8 27c4 2 16 36 27 75 10 39 23 71 27 71s8-21 8-46zm-284-481c-10-10-19 5-10 18 6 11 8 11 12 0 2-7 1-15-2-18z"/>
  <path id="path10" d="m1500 3330c0-6 4-10 10-10s10 4 10 10-4 10-10 10-10-4-10-10z"/>
  <path id="path12" d="m1417 3213c-12-12-7-53 6-53 19 0 37 21 37 42 0 18-29 25-43 11z"/>
  <path id="path14" d="m1629 3074c-12-14-11-16 5-13 11 2 21 10 24 17 5 17-13 15-29-4z"/>
  <path id="path16" d="m1593 2868c-41-20-22-45 21-28 14 5 26 16 26 25 0 17-15 18-47 3z"/>
  <path id="path18" d="m1318 2859c-7-4-10-11-6-14 11-11 61-10 65 1 5 14-41 24-59 13z"/>
  <path id="path20" d="m1507 2863c-15-14-6-23 23-23 32 0 40 14 14 24-20 8-29 8-37-1z"/>
  <path id="path22" d="m1260 2840c0-11 5-20 10-20s10 9 10 20-5 20-10 20-10-9-10-20z"/>
  <path id="path24" d="m1390 2850c0-6 7-10 15-10s15 4 15 10-7 10-15 10-15-4-15-10z"/>
  <path id="path26" d="m1440 2851c0-6 4-13 10-16 6-4 5-13-2-24-9-15-8-22 5-35 24-24 27-20 27 34 0 43-3 50-20 50-11 0-20-4-20-9z"/>
  <path id="path28" d="m1220 2816c0-8 5-18 10-21s10 3 10 14c0 12-5 21-10 21s-10-6-10-14z"/>
  <path id="path30" d="m1378 2813c-19-5-25-33-8-33 6 0 10 5 10 10 0 6 8 5 20-2 22-14 33-8 24 16-6 16-14 18-46 9z"/>
  <path id="path32" d="m1500 2799c0-24 23-21 28 4 2 10-3 17-12 17-10 0-16-9-16-21z"/>
  <path id="path34" d="m1540 2795c0-8 5-15 11-15s9-15 8-34c-4-43 6-55 20-27 18 33-2 90-31 91-5 0-8-7-8-15z"/>
  <path id="path36" d="m1720 2785c0-8 4-15 10-15s10 7 10 15-4 15-10 15-10-7-10-15z"/>
  <path id="path38" d="m1176 2764c-4-10-1-14 6-12 15 5 23 28 10 28-5 0-13-7-16-16z"/>
  <path id="path40" d="m1260 2740c0-11 5-20 10-20s10 9 10 20-5 20-10 20-10-9-10-20z"/>
  <path id="path42" d="m1607 2753c-4-3-7-16-7-27-1-25-18-50-42-59-19-7-25-47-8-47 6 0 10 4 10 10s6 10 13 10c6 0 25 12 41 26 23 21 26 28 15 35s-12 12-1 29c6 11 12 22 12 25 0 7-26 6-33-2z"/>
  <path id="path44" d="m1300 2730c0-11 4-20 10-20s10 9 10 20-4 20-10 20-10-9-10-20z"/>
  <path id="path46" d="m1513 2743c-18-7-16-43 2-43s31 28 19 39c-5 5-15 6-21 4z"/>
  <path id="path48" d="m1345 2732c-3-3-5-15-5-26 1-21 1-21 16-1 13 17 16 18 25 5 8-11 12-12 16-2 8 19 23 14 23-8 0-11 4-20 10-20s10 13 10 28c0 27-2 29-45 29-25 0-47-3-50-5z"/>
  <path id="path50" d="m1460 2715c0-14 4-25 10-25s10 11 10 25-4 25-10 25-10-11-10-25z"/>
  <path id="path52" d="m1712 2720c-13-21-16-50-6-50 12 0 41 45 37 57-7 18-16 16-31-7z"/>
  <path id="path54" d="m1652 2688c6-18 28-21 28-4 0 9-7 16-16 16s-14-5-12-12z"/>
  <path id="path56" d="m1340 2645c0-8 4-15 10-15s10 7 10 15-4 15-10 15-10-7-10-15z"/>
  <path id="path58" d="m1500 2640c0-11 4-20 10-20s10 9 10 20-4 20-10 20-10-9-10-20z"/>
  <path id="path60" d="m1460 2210c0-6 4-10 10-10s10 4 10 10-4 10-10 10-10-4-10-10z"/>
  <path id="path62" d="m1120 2545c0-8 5-15 10-15s10 7 10 15-5 15-10 15-10-7-10-15z"/>
  <path id="path64" d="m1276 2404c-9-22-8-24 9-24 8 0 15 9 15 20 0 24-15 27-24 4z"/>
  <path id="path66" d="m1675 2440c-7-12 2-30 16-30 12 0 12 27 0 35-5 3-12 1-16-5z"/>
  <path id="path68" d="m1613 2063c-18-7-16-23 2-23 8 0 15 7 15 15s-1 15-2 14c-2 0-9-3-15-6z"/>
  <path id="path70" d="m1395 1930c-3-6-1-10 4-10 6 0 11 4 11 10 0 13-7 13-15 0z"/>
  <path id="path72" d="m1340 1840c0-11 4-20 10-20s10 9 10 20-4 20-10 20-10-9-10-20z"/>
  <path id="path74" d="m1400 1820c0-12 7-20 16-20 11 0 14 5 10 16-3 9-6 18-6 20s-4 4-10 4-10-9-10-20z"/>
  <path id="path76" d="m1587 1783c-11-10-8-43 3-43 15 0 24 30 13 41-5 5-12 6-16 2z"/>
  <path id="path78" d="m1360 1771c0-13 29-35 37-28 7 8-15 37-28 37-5 0-9-4-9-9z"/>
  <path id="path80" d="m1520 1590c0-6 7-10 16-10 8 0 12 4 9 10-8 13-25 13-25 0z"/>
  <path id="path82" d="m1580 1585c0-8 4-15 10-15s10 7 10 15-4 15-10 15-10-7-10-15z"/>
  <path id="path84" d="m1700 1610c0-6 4-10 10-10s10 4 10 10-4 10-10 10-10-4-10-10z"/>
  <path id="path86" d="m1395 1380c4-11 2-20-4-20s-11-10-11-22c0-23 0-23 20 2 24 30 26 60 4 60-11 0-14-6-9-20z"/>
  <path id="path88" d="m1631 1404c-7-8-11-17-8-20 8-9 37 8 37 22 0 18-11 17-29-2z"/>
  <path id="path90" d="m1860 2770c0-6 4-10 10-10s10 4 10 10-4 10-10 10-10-4-10-10z"/>
 </g>
 <path id="path4" d="m409.23 542.31-1.604 2.807h4.01l-7.4186 7.4186c-6.6544-4.972-16.019-3.9588-21.456 2.3216-5.4369 6.2803-5.0986 15.694 0.77519 21.568 5.8738 5.8738 15.287 6.2121 21.568 0.77517 6.2803-5.4369 7.2936-14.802 2.3215-21.456l7.4186-7.4186v4.01l2.807-1.604v-8.4211h-8.4211zm-14.436 11.429c6.3118 0 11.429 5.1168 11.429 11.429 0 6.3118-5.1168 11.429-11.429 11.429-6.3119 0-11.429-5.1168-11.429-11.429 0-6.3119 5.1168-11.429 11.429-11.429z" stroke-width="0"/>
</svg>
