<?xml version="1.0" encoding="utf-8"?>
<!-- Generator: Adobe Illustrator 18.1.1, SVG Export Plug-In . SVG Version: 6.00 Build 0)  -->
<!DOCTYPE svg PUBLIC "-//W3C//DTD SVG 1.1//EN" "http://www.w3.org/Graphics/SVG/1.1/DTD/svg11.dtd">
<svg version="1.1" id="Layer_1" xmlns="http://www.w3.org/2000/svg" xmlns:xlink="http://www.w3.org/1999/xlink" x="0px" y="0px"
	 width="312.5px" height="170.5px" viewBox="0 0 312.5 170.5" enable-background="new 0 0 312.5 170.5" xml:space="preserve">
<g>
	<path fill="none" d="M121.4,80.4l3.9-8c-4.7-0.3-17.8-0.4-23.4,7.1c-1.9,2.6-3.4,7.8-5.2,13.7c-2,7-4.5,15.7-8.9,23.6
		c1.3,0.3,2.5,0.5,3.7,0.8c6.1,1.3,11.4,2.5,14.5,2c11.4-1.7,18-18.6,18-18.8c0.1-0.2,0.2-0.4,0.4-0.6c-1.8-1.8-3.2-4.1-4-6.6
		C119.1,89.3,119.4,84.6,121.4,80.4z"/>
	<path fill="none" d="M141.9,37.9c0.1,0.1,0.1,0.3,0.2,0.4l5.1-10.3c-2.8,1.4-6,3.3-8.8,5.2C139.8,34.5,141.1,36,141.9,37.9z"/>
	<path fill="none" d="M159.2,51.1c-1.3-0.4-2-1.8-1.6-3.2c0.4-1.3,1.8-2,3.2-1.6l11.5,3.8l1.4-2.8l-18.4-6c-1.3-0.4-2-1.8-1.6-3.2
		c0.4-1.3,1.8-2,3.2-1.6l19.1,6.2l1.2-2.5c-0.3,0.1-0.5,0.1-0.8,0.1c-0.3,0-0.5,0-0.8-0.1l-18.2-6.2c-1.3-0.4-2-1.9-1.6-3.2
		c0.4-1.3,1.9-2,3.2-1.6l18.2,6.2c0.8,0.3,1.3,0.9,1.6,1.6l0.3-0.7c0.5-1.1,0.9-2.2,1.1-3.4c-0.3,0.1-0.5,0.1-0.8,0.1
		c-0.3,0-0.5,0-0.8-0.1l-12.2-4c-1.3-0.4-2-1.8-1.6-3.2c0.4-1.3,1.8-2,3.2-1.6l12.2,4c-0.1-0.5-0.2-0.9-0.4-1.4
		c-1.1-3.2-3.3-5.7-6.3-7.2l-2.1-1c-1.7-0.9-3.6-1.3-5.5-1.3c-4.8,0-9.1,2.7-11.2,7l-18.2,37.1l11.2,4.8c1.3,0.5,1.9,2,1.3,3.3
		c-0.4,1-1.3,1.5-2.3,1.5c-0.3,0-0.7-0.1-1-0.2L134,66.1l-0.8,1.7l7.3,3c1.3,0.5,1.9,2,1.4,3.3c-0.4,1-1.3,1.5-2.3,1.5
		c-0.3,0-0.6-0.1-1-0.2l-7.6-3.1l-1,2l14.5,5.9c1.3,0.5,1.9,2,1.4,3.3c-0.4,1-1.3,1.6-2.3,1.6c-0.3,0-0.6-0.1-0.9-0.2l-14.8-6
		l-1.9,3.8c-1.5,3-1.7,6.4-0.6,9.5c1.1,3.2,3.3,5.7,6.3,7.2l2.1,1c1.7,0.9,3.6,1.3,5.5,1.3c0.4,0,0.9,0,1.3-0.1l-9.3-4.1
		c-1.3-0.6-1.8-2-1.3-3.3c0.6-1.3,2-1.8,3.3-1.3l11.8,5.2c0.6,0.3,1.1,0.8,1.3,1.3c0.7-0.5,1.3-1,1.8-1.6l-10-4.4
		c-1.3-0.6-1.8-2-1.3-3.3c0.6-1.3,2-1.8,3.3-1.3l10.7,4.7l19.1-38.9L159.2,51.1z"/>
	<path fill="none" d="M139.3,43.9c0.4-1.9,0.4-3.6-0.2-4.8c-0.7-1.6-1.9-2.9-3.4-4c-1.6,1.3-2.9,2.5-3.6,3.7
		c-4.3,7.2-3,13.7-1.9,19.4c0.1,0.8,0.3,1.5,0.4,2.3c0.2-0.1,0.4-0.2,0.7-0.3L139.3,43.9z"/>
	<path fill="none" d="M217.6,52.6c-3.5-0.4-7.1-0.6-10.9-0.1c-3.8,0.4-8.3,2.6-12.9,5.7c0.7-0.1,1.4-0.2,2.1-0.3
		C204.5,56.6,213.4,55.2,217.6,52.6z"/>
	<path fill="none" d="M182,63.3c-0.9,0.2-1.8,0.4-2.6,0.7c-7,1.9-11.1,9.1-13.3,14.5C170.4,73.9,176.1,68.3,182,63.3z"/>
	<path fill="none" d="M36.4,129.6c-2.5,2.8-4.9,6-7.1,9.2c0.9,0,1.8-0.1,2.6-0.1c9.7-0.3,19.7-0.6,28-2.6
		c11.1-2.7,18.3-9.3,23.4-17.2C68,116,49.8,114.7,36.4,129.6z"/>
	<path fill="none" d="M224.8,53.7c-1-0.2-2.1-0.3-3.1-0.5c-0.6,0.6-1.2,1.1-1.8,1.5c-4.6,3.3-13.8,4.6-23.6,6.1
		c-2.7,0.4-5.4,0.8-8,1.3c-8.1,6.3-16.1,14.3-21.6,20.2c12.5-7,26.2-7.9,38.5-8.7c15.9-1,29.7-1.9,36.1-15.8c0.5-1,0.9-1.9,1.4-2.9
		C236.4,55.6,230.5,54.6,224.8,53.7z"/>
	<path fill="#8ABABA" d="M136.9,90.2c-0.6,1.3,0,2.7,1.3,3.3l10,4.4c0.9-0.9,1.7-2,2.3-3.2l0.5-1l-10.7-4.7
		C139,88.3,137.5,88.9,136.9,90.2z"/>
	<path fill="#8ABABA" d="M145,98.1l-11.8-5.2c-1.3-0.6-2.7,0-3.3,1.3c-0.6,1.3,0,2.7,1.3,3.3l9.3,4.1c2.1-0.2,4.1-1,5.8-2.1
		C146.1,98.8,145.6,98.3,145,98.1z"/>
	<path fill="#8ABABA" d="M143.5,85c1,0,1.9-0.6,2.3-1.6c0.5-1.3-0.1-2.7-1.4-3.3L130,74.3l-2.2,4.5l14.8,6
		C142.9,84.9,143.2,85,143.5,85z"/>
	<path fill="#8ABABA" d="M139.5,75.6c1,0,1.9-0.6,2.3-1.5c0.5-1.3-0.1-2.7-1.4-3.3l-7.3-3l-2.2,4.5l7.6,3.1
		C138.9,75.6,139.2,75.6,139.5,75.6z"/>
	<path fill="#8ABABA" d="M146.5,71.2c1,0,1.9-0.6,2.3-1.5c0.5-1.3-0.1-2.7-1.3-3.3l-11.2-4.8l-2.2,4.5l11.5,4.9
		C145.8,71.1,146.1,71.2,146.5,71.2z"/>
	<path fill="#8ABABA" d="M131.3,60.2c-0.2,0.1-0.5,0.2-0.7,0.3c0,0.3,0.1,0.5,0.1,0.8L131.3,60.2z"/>
	<path fill="#8ABABA" d="M157.6,48c-0.4,1.3,0.3,2.7,1.6,3.2l10.8,3.5l2.2-4.5l-11.5-3.8C159.5,45.9,158.1,46.7,157.6,48z"/>
	<path fill="#8ABABA" d="M153.6,38.2c-0.4,1.3,0.3,2.7,1.6,3.2l18.4,6l2.2-4.5l-19.1-6.2C155.5,36.2,154,36.9,153.6,38.2z"/>
	<path fill="#8ABABA" d="M177.1,35.6l-18.2-6.2c-1.3-0.4-2.7,0.2-3.2,1.6c-0.4,1.3,0.2,2.7,1.6,3.2l18.2,6.2
		c0.3,0.1,0.5,0.1,0.8,0.1c0.3,0,0.6-0.1,0.8-0.1l1.5-3.1C178.4,36.5,177.8,35.9,177.1,35.6z"/>
	<path fill="#8ABABA" d="M164.6,26c-0.4,1.3,0.3,2.7,1.6,3.2l12.2,4c0.3,0.1,0.5,0.1,0.8,0.1c0.3,0,0.6-0.1,0.8-0.1
		c0.3-1.6,0.2-3.2-0.1-4.8l-12.2-4C166.5,23.9,165.1,24.7,164.6,26z"/>
	<path fill="#174F65" d="M311.8,53.7c-0.1,0-6.7-4.1-18-10.5c-8.6-4.9-23.1,0-35.8,4.2c-3,1-5.9,2-8.6,2.8
		c15-18.1,42.2-17.6,42.6-17.6c0.8,0.1,1.5-0.6,1.5-1.5s-0.6-1.5-1.5-1.5c-0.3,0-32-0.6-47.3,21.8c-0.2,0-0.4,0.1-0.6,0.1
		c-6.5,1.3-12.6,0.3-18.9-0.8c-0.4-0.1-0.8-0.1-1.1-0.2c1.6-1.9,3.2-4.1,4.8-6.4c4.2-5.8,8.9-12.5,14.7-15.2c4.3-2,8.5-3.2,12.6-4.3
		c5.8-1.6,10.8-3,14.3-6.4c0.6-0.6,0.6-1.5,0-2.1s-1.5-0.6-2.1,0c-2.9,2.9-7.6,4.2-13,5.7c-4,1.1-8.6,2.4-13.1,4.5
		c-6.5,3.1-11.5,10.1-15.8,16.2c-2,2.9-4,5.6-5.9,7.6c-4.5-0.7-9.2-1.1-14.3-0.5c-5.6,0.6-12.5,4.6-19.2,9.7c-3,0.5-5.9,1.1-8.5,1.8
		c-3.6,1-6.6,3.1-8.9,5.7l3-6.1c4.9-1,18.4-5.1,23.8-21.2c3.6-10.7,10.4-11.4,17.6-12.2c3.1-0.3,6.3-0.7,9.1-1.8
		c12.5-5.2,18.9-21.4,19.2-22.1c0.3-0.8-0.1-1.6-0.9-1.9c-0.8-0.3-1.6,0.1-1.9,0.9c-0.1,0.2-6.2,15.6-17.5,20.4
		c-2.4,1-5.2,1.3-8.2,1.6c-7.5,0.8-16,1.7-20.1,14.2c-4.3,12.8-13.9,17.2-19.2,18.7l9.1-18.5c2.1-4.2,2.4-8.9,0.9-13.4
		c-1.5-4.4-4.7-8-8.8-10.1l-2.1-1c-2.4-1.2-5-1.8-7.7-1.8c-6.7,0-12.8,3.8-15.7,9.8l-0.7,1.4c-2.5,1.2-8.6,4.2-13.5,7.7
		c-0.6-0.4-1.2-0.8-1.8-1.2c-3.6-2.4-6.7-4.5-7-8.2c-0.2-2.8,1-4.1,2.5-6c2.3-2.7,5.1-5.9,4.5-14.6c-0.1-0.8-0.8-1.5-1.6-1.4
		c-0.8,0.1-1.4,0.8-1.4,1.6c0.5,7.4-1.7,9.9-3.8,12.4c-1.7,2-3.5,4.1-3.2,8.1c0.3,5.2,4.4,7.9,8.3,10.5c0.3,0.2,0.6,0.4,1,0.6
		c-1.6,1.3-2.9,2.7-3.7,4c-4.9,8.2-3.4,15.6-2.3,21.5c0.6,3,1.1,5.7,0.8,8.1l-1.3,2.6c-3.6-0.4-20-1.4-27.2,8.2
		c-2.3,3-3.8,8.2-5.6,14.7c-2.1,7.4-4.7,16.1-9,23.8c-15.7-3.1-36-4.9-50.8,11.4c-3.1,3.5-6,7.4-8.6,11.3c-12,0.5-21.8,1.6-24.4,7.5
		c-0.3,0.8,0,1.6,0.8,2c0.2,0.1,0.4,0.1,0.6,0.1c0.6,0,1.1-0.3,1.4-0.9c1.8-4,9.8-5.1,19.6-5.6c-1.4,2.2-2.8,4.4-4.1,6.6
		C12.9,159,7.4,167.9,1.6,167.5c-0.8-0.1-1.5,0.6-1.6,1.4c-0.1,0.8,0.6,1.5,1.4,1.6c0.2,0,0.4,0,0.6,0c7.3,0,13.2-9.5,19.9-20.4
		c1.7-2.7,3.4-5.5,5.2-8.3c1.6-0.1,3.2-0.1,4.8-0.2c9.8-0.3,20-0.6,28.6-2.7c12.4-3,20.4-10.6,25.8-19.5c1.6,0.3,3.1,0.7,4.7,1
		c6.7,1.4,11.9,2.6,15.6,2c12.3-1.8,19.2-17.7,20.3-20.3c0.8,0.6,1.6,1.1,2.5,1.5l2.1,1c2.4,1.2,5,1.8,7.7,1.8
		c6.7,0,12.8-3.8,15.7-9.8l3-6.2c0,0,0,0,0,0c0,0,3.4,2.7,2.5,10.1c-0.5,3.6-3.9,35.6,20.4,40.4c0.1,0,0.2,0,0.3,0
		c0.7,0,1.3-0.5,1.5-1.2c0.2-0.8-0.4-1.6-1.2-1.8c-8.5-1.7-14.1-7.3-16.8-16.7c-2.5-8.7-1.6-17.8-1.2-20.4c0.8-6.1-1-9.7-2.3-11.5
		c13.6-11.2,29.9-12.2,44.3-13.2c16.2-1,31.5-2,38.6-17.6c0.8-1.7,1.7-3.3,2.6-4.8c3.6-0.9,7.9-2.3,12.3-3.8
		c12.1-4.1,25.8-8.7,33.3-4.5c11.3,6.4,17.9,10.4,18,10.5c0.7,0.4,1.6,0.2,2.1-0.5S312.5,54.2,311.8,53.7z M59.9,136.1
		c-8.3,2-18.3,2.3-28,2.6c-0.9,0-1.8,0.1-2.6,0.1c2.2-3.2,4.6-6.4,7.1-9.2C49.8,114.7,68,116,83.3,118.9
		C78.2,126.8,71,133.4,59.9,136.1z M206.7,52.5c3.8-0.4,7.4-0.3,10.9,0.1c-4.2,2.6-13.1,3.9-21.7,5.2c-0.7,0.1-1.4,0.2-2.1,0.3
		C198.4,55.1,202.9,52.9,206.7,52.5z M147.1,28.1L142,38.4c-0.1-0.1-0.1-0.3-0.2-0.4c-0.8-1.9-2.1-3.4-3.6-4.7
		C141.1,31.3,144.3,29.5,147.1,28.1z M132.2,38.8c0.7-1.2,2-2.4,3.6-3.7c1.5,1.2,2.7,2.5,3.4,4c0.6,1.3,0.5,3,0.2,4.8l-8,16.2
		l-0.5,1.1c0-0.3-0.1-0.5-0.1-0.8c-0.1-0.8-0.3-1.5-0.4-2.3C129.1,52.5,127.9,46,132.2,38.8z M124.2,100.9
		c-0.1,0.2-6.7,17.1-18,18.8c-3.2,0.5-8.5-0.7-14.5-2c-1.2-0.3-2.4-0.5-3.7-0.8c4.3-8,6.8-16.6,8.9-23.6c1.7-6,3.2-11.2,5.2-13.7
		c5.6-7.5,18.7-7.4,23.4-7.1l-3.9,8c-2.1,4.2-2.4,8.9-0.9,13.4c0.9,2.5,2.2,4.7,4,6.6C124.4,100.4,124.3,100.6,124.2,100.9z
		 M150.9,93.6l-0.5,1c-0.6,1.2-1.4,2.3-2.3,3.2c-0.6,0.6-1.2,1.1-1.8,1.6c-1.7,1.2-3.7,1.9-5.8,2.1c-0.4,0-0.9,0.1-1.3,0.1
		c-1.9,0-3.8-0.4-5.5-1.3l-2.1-1c-3-1.5-5.2-4-6.3-7.2c-1.1-3.2-0.9-6.6,0.6-9.5l1.9-3.8l2.2-4.5l1-2l2.2-4.5l0.8-1.7l2.2-4.5
		l18.2-37.1c2.1-4.3,6.4-7,11.2-7c1.9,0,3.8,0.4,5.5,1.3l2.1,1c3,1.5,5.2,4,6.3,7.2c0.2,0.4,0.3,0.9,0.4,1.4
		c0.3,1.6,0.4,3.2,0.1,4.8c-0.2,1.2-0.6,2.3-1.1,3.4l-0.3,0.7l-1.5,3.1l-1.2,2.5l-2.2,4.5l-1.4,2.8l-2.2,4.5L150.9,93.6z
		 M179.4,63.9c0.8-0.2,1.7-0.4,2.6-0.7c-6,5-11.6,10.6-16,15.2C168.3,73.1,172.5,65.9,179.4,63.9z M241.3,57.7
		c-6.3,13.9-20.1,14.8-36.1,15.8c-12.3,0.8-26,1.7-38.5,8.7c5.5-5.8,13.5-13.9,21.6-20.2c2.6-0.4,5.3-0.9,8-1.3
		c9.8-1.5,19-2.8,23.6-6.1c0.6-0.4,1.2-1,1.8-1.5c1,0.2,2.1,0.3,3.1,0.5c5.7,0.9,11.6,1.9,17.9,1.1
		C242.2,55.7,241.7,56.7,241.3,57.7z"/>
</g>
</svg>
